<svg width="124" height="124" viewBox="0 0 124 124" fill="none" xmlns="http://www.w3.org/2000/svg">
<circle cx="62" cy="62" r="62" fill="white"/>
<mask id="path-2-outside-1_0_1" maskUnits="userSpaceOnUse" x="17" y="17" width="89" height="83" fill="black">
<rect fill="white" x="17" y="17" width="89" height="83"/>
<path d="M30.7119 33.936C39.7359 33.936 48.4399 38.736 56.8239 48.336C59.3839 53.392 60.6639 58.288 60.6639 63.024C60.6639 74.16 54.9999 82.352 43.6719 87.6C40.0239 89.2 36.0879 90 31.8639 90H29.4639C27.0959 89.936 25.9119 88.944 25.9119 87.024H25.6239C25.6239 85.296 26.7119 84.4 28.8879 84.336H31.0959V83.76H31.2879C27.3199 66.928 25.3359 54.416 25.3359 46.224H25.0479L22.6479 47.76C20.9839 47.76 19.9919 46.64 19.6719 44.4C19.6719 40.88 21.6559 37.808 25.6239 35.184C27.2239 34.352 28.9199 33.936 30.7119 33.936ZM31.8639 39.6H31.0959V44.208C31.0959 54.704 33.0799 67.888 37.0479 83.76H37.3359C49.1759 80.56 55.0959 73.648 55.0959 63.024C55.0959 51.632 48.4719 44.016 35.2239 40.176C34.4559 39.792 33.3359 39.6 31.8639 39.6ZM92.0814 19.92H92.3694C93.9694 20.752 94.7694 21.68 94.7694 22.704L92.3694 40.944C92.3694 47.6 94.3534 61.392 98.3214 82.32L103.121 94.32C103.121 95.152 102.449 96.08 101.105 97.104H99.2814C98.0014 96.72 96.0814 92.784 93.5214 85.296C91.8574 79.28 90.1934 70 88.5294 57.456H87.9534C84.2414 68.464 81.6174 74.16 80.0814 74.544L78.5454 74.928C77.2014 74.928 75.5374 72.304 73.5534 67.056H72.8814C72.1134 82.864 70.6094 90.768 68.3694 90.768H68.0814C66.0334 90.768 64.9134 89.168 64.7214 85.968C66.3214 79.824 67.1214 73.424 67.1214 66.768L64.5294 41.328V39.504C64.5294 37.072 65.3934 35.856 67.1214 35.856C69.6174 35.856 71.8254 40.752 73.7454 50.544C76.5614 59.44 78.2894 64.24 78.9294 64.944C80.4014 62.64 81.8734 58.544 83.3454 52.656C84.4974 49.648 85.6174 44.944 86.7054 38.544L86.3214 38.256L86.7054 36.72V36.144C87.2814 25.328 89.0734 19.92 92.0814 19.92Z"/>
</mask>
<path d="M30.7119 33.936C39.7359 33.936 48.4399 38.736 56.8239 48.336C59.3839 53.392 60.6639 58.288 60.6639 63.024C60.6639 74.16 54.9999 82.352 43.6719 87.6C40.0239 89.2 36.0879 90 31.8639 90H29.4639C27.0959 89.936 25.9119 88.944 25.9119 87.024H25.6239C25.6239 85.296 26.7119 84.4 28.8879 84.336H31.0959V83.76H31.2879C27.3199 66.928 25.3359 54.416 25.3359 46.224H25.0479L22.6479 47.76C20.9839 47.76 19.9919 46.64 19.6719 44.4C19.6719 40.88 21.6559 37.808 25.6239 35.184C27.2239 34.352 28.9199 33.936 30.7119 33.936ZM31.8639 39.6H31.0959V44.208C31.0959 54.704 33.0799 67.888 37.0479 83.76H37.3359C49.1759 80.56 55.0959 73.648 55.0959 63.024C55.0959 51.632 48.4719 44.016 35.2239 40.176C34.4559 39.792 33.3359 39.6 31.8639 39.6ZM92.0814 19.92H92.3694C93.9694 20.752 94.7694 21.68 94.7694 22.704L92.3694 40.944C92.3694 47.6 94.3534 61.392 98.3214 82.32L103.121 94.32C103.121 95.152 102.449 96.08 101.105 97.104H99.2814C98.0014 96.72 96.0814 92.784 93.5214 85.296C91.8574 79.28 90.1934 70 88.5294 57.456H87.9534C84.2414 68.464 81.6174 74.16 80.0814 74.544L78.5454 74.928C77.2014 74.928 75.5374 72.304 73.5534 67.056H72.8814C72.1134 82.864 70.6094 90.768 68.3694 90.768H68.0814C66.0334 90.768 64.9134 89.168 64.7214 85.968C66.3214 79.824 67.1214 73.424 67.1214 66.768L64.5294 41.328V39.504C64.5294 37.072 65.3934 35.856 67.1214 35.856C69.6174 35.856 71.8254 40.752 73.7454 50.544C76.5614 59.44 78.2894 64.24 78.9294 64.944C80.4014 62.64 81.8734 58.544 83.3454 52.656C84.4974 49.648 85.6174 44.944 86.7054 38.544L86.3214 38.256L86.7054 36.72V36.144C87.2814 25.328 89.0734 19.92 92.0814 19.92Z" fill="black"/>
<path d="M56.8239 48.336L58.6082 47.4325L58.495 47.2091L58.3303 47.0204L56.8239 48.336ZM43.6719 87.6L44.4752 89.4316L44.494 89.4233L44.5126 89.4147L43.6719 87.6ZM29.4639 90L29.4098 91.9993L29.4369 92H29.4639V90ZM25.9119 87.024H27.9119V85.024H25.9119V87.024ZM25.6239 87.024H23.6239V89.024H25.6239V87.024ZM28.8879 84.336V82.336H28.8585L28.8291 82.3369L28.8879 84.336ZM31.0959 84.336V86.336H33.0959V84.336H31.0959ZM31.0959 83.76V81.76H29.0959V83.76H31.0959ZM31.2879 83.76V85.76H33.8142L33.2345 83.3011L31.2879 83.76ZM25.3359 46.224H27.3359V44.224H25.3359V46.224ZM25.0479 46.224V44.224H24.4627L23.9698 44.5395L25.0479 46.224ZM22.6479 47.76V49.76H23.2331L23.726 49.4445L22.6479 47.76ZM19.6719 44.4H17.6719V44.5421L17.692 44.6828L19.6719 44.4ZM25.6239 35.184L24.7012 33.4096L24.6081 33.4579L24.5207 33.5158L25.6239 35.184ZM31.0959 39.6V37.6H29.0959V39.6H31.0959ZM37.0479 83.76L35.1076 84.2451L35.4863 85.76H37.0479V83.76ZM37.3359 83.76V85.76H37.6014L37.8577 85.6907L37.3359 83.76ZM35.2239 40.176L34.3294 41.9649L34.4923 42.0463L34.6671 42.0969L35.2239 40.176ZM30.7119 35.936C38.951 35.936 47.1513 40.301 55.3175 49.6516L58.3303 47.0204C49.7284 37.1709 40.5207 31.936 30.7119 31.936V35.936ZM55.0396 49.2394C57.4854 54.07 58.6639 58.6579 58.6639 63.024H62.6639C62.6639 57.9181 61.2823 52.714 58.6082 47.4325L55.0396 49.2394ZM58.6639 63.024C58.6639 68.2356 57.3448 72.6597 54.7708 76.3826C52.1872 80.1194 48.2526 83.2737 42.8312 85.7853L44.5126 89.4147C50.4192 86.6783 54.9806 83.1126 58.061 78.6574C61.1509 74.1883 62.6639 68.9484 62.6639 63.024H58.6639ZM42.8686 85.7684C39.4889 87.2507 35.8283 88 31.8639 88V92C36.3474 92 40.5588 91.1493 44.4752 89.4316L42.8686 85.7684ZM31.8639 88H29.4639V92H31.8639V88ZM29.5179 88.0007C28.5566 87.9747 28.1888 87.7625 28.0843 87.675C28.0536 87.6492 27.9119 87.549 27.9119 87.024H23.9119C23.9119 88.419 24.3621 89.7748 25.5154 90.741C26.595 91.6455 28.0031 91.9613 29.4098 91.9993L29.5179 88.0007ZM25.9119 85.024H25.6239V89.024H25.9119V85.024ZM27.6239 87.024C27.6239 86.7994 27.6593 86.6887 27.6754 86.65C27.6869 86.6221 27.6941 86.614 27.7113 86.5999C27.7708 86.5508 28.0744 86.3608 28.9467 86.3351L28.8291 82.3369C27.5253 82.3752 26.1969 82.6652 25.1685 83.5121C24.0597 84.4252 23.6239 85.7107 23.6239 87.024H27.6239ZM28.8879 86.336H31.0959V82.336H28.8879V86.336ZM33.0959 84.336V83.76H29.0959V84.336H33.0959ZM31.0959 85.76H31.2879V81.76H31.0959V85.76ZM33.2345 83.3011C29.2719 66.4917 27.3359 54.17 27.3359 46.224H23.3359C23.3359 54.662 25.3679 67.3643 29.3412 84.2189L33.2345 83.3011ZM25.3359 44.224H25.0479V48.224H25.3359V44.224ZM23.9698 44.5395L21.5698 46.0755L23.726 49.4445L26.126 47.9085L23.9698 44.5395ZM22.6479 45.76C22.3166 45.76 22.2243 45.6744 22.1531 45.5939C22.0178 45.4413 21.7829 45.0351 21.6518 44.1172L17.692 44.6828C17.8808 46.0049 18.3019 47.2787 19.1587 48.2461C20.0794 49.2856 21.3151 49.76 22.6479 49.76V45.76ZM21.6719 44.4C21.6719 41.7757 23.1017 39.2496 26.7271 36.8522L24.5207 33.5158C20.2101 36.3663 17.6719 39.9843 17.6719 44.4H21.6719ZM26.5466 36.9584C27.8635 36.2736 29.2432 35.936 30.7119 35.936V31.936C28.5965 31.936 26.5843 32.4303 24.7012 33.4096L26.5466 36.9584ZM31.8639 37.6H31.0959V41.6H31.8639V37.6ZM29.0959 39.6V44.208H33.0959V39.6H29.0959ZM29.0959 44.208C29.0959 54.9318 31.1194 68.2921 35.1076 84.2451L38.9882 83.2749C35.0404 67.4839 33.0959 54.4762 33.0959 44.208H29.0959ZM37.0479 85.76H37.3359V81.76H37.0479V85.76ZM37.8577 85.6907C44.0337 84.0215 48.8766 81.328 52.1749 77.477C55.496 73.5993 57.0959 68.7289 57.0959 63.024H53.0959C53.0959 67.9431 51.7357 71.8407 49.1369 74.875C46.5151 77.936 42.478 80.2985 36.8141 81.8293L37.8577 85.6907ZM57.0959 63.024C57.0959 56.9119 55.3065 51.6745 51.637 47.4555C47.9959 43.2692 42.6429 40.2441 35.7807 38.2551L34.6671 42.0969C41.0529 43.9479 45.6358 46.6508 48.6188 50.0805C51.5733 53.4775 53.0959 57.7441 53.0959 63.024H57.0959ZM36.1183 38.3871C34.9406 37.7983 33.4541 37.6 31.8639 37.6V41.6C33.2176 41.6 33.9711 41.7857 34.3294 41.9649L36.1183 38.3871ZM92.3694 19.92L93.2921 18.1456L92.8583 17.92H92.3694V19.92ZM94.7694 22.704L96.7523 22.9649L96.7694 22.835V22.704H94.7694ZM92.3694 40.944L90.3865 40.6831L90.3694 40.813V40.944H92.3694ZM98.3214 82.32L96.3564 82.6926L96.3925 82.8829L96.4644 83.0628L98.3214 82.32ZM103.121 94.32H105.121V93.9348L104.978 93.5772L103.121 94.32ZM101.105 97.104V99.104H101.78L102.317 98.6949L101.105 97.104ZM99.2814 97.104L98.7067 99.0197L98.9878 99.104H99.2814V97.104ZM93.5214 85.296L91.5938 85.8292L91.6096 85.8866L91.6289 85.943L93.5214 85.296ZM88.5294 57.456L90.512 57.193L90.2816 55.456H88.5294V57.456ZM87.9534 57.456V55.456H86.5171L86.0582 56.8169L87.9534 57.456ZM80.0814 74.544L79.5963 72.6037L79.5963 72.6037L80.0814 74.544ZM78.5454 74.928V76.928H78.7916L79.0304 76.8683L78.5454 74.928ZM73.5534 67.056L75.4242 66.3488L74.9354 65.056H73.5534V67.056ZM72.8814 67.056V65.056H70.9762L70.8837 66.9589L72.8814 67.056ZM64.7214 85.968L62.7859 85.464L62.706 85.771L62.725 86.0878L64.7214 85.968ZM67.1214 66.768H69.1214V66.6664L69.1111 66.5653L67.1214 66.768ZM64.5294 41.328H62.5294V41.4296L62.5397 41.5307L64.5294 41.328ZM73.7454 50.544L71.7827 50.9288L71.8045 51.0398L71.8386 51.1476L73.7454 50.544ZM78.9294 64.944L77.4495 66.2893L79.2076 68.2233L80.6148 66.0208L78.9294 64.944ZM83.3454 52.656L81.4777 51.9407L81.4344 52.0536L81.4051 52.1709L83.3454 52.656ZM86.7054 38.544L88.6771 38.8792L88.8816 37.6762L87.9054 36.944L86.7054 38.544ZM86.3214 38.256L84.3811 37.7709L84.059 39.0592L85.1214 39.856L86.3214 38.256ZM86.7054 36.72L88.6457 37.2051L88.7054 36.9662V36.72H86.7054ZM86.7054 36.144L84.7082 36.0376L84.7054 36.0908V36.144H86.7054ZM92.0814 21.92H92.3694V17.92H92.0814V21.92ZM91.4467 21.6944C92.1181 22.0436 92.4792 22.3425 92.6546 22.5459C92.806 22.7216 92.7694 22.7617 92.7694 22.704H96.7694C96.7694 20.4894 95.0347 19.0517 93.2921 18.1456L91.4467 21.6944ZM92.7865 22.4431L90.3865 40.6831L94.3523 41.2049L96.7523 22.9649L92.7865 22.4431ZM90.3694 40.944C90.3694 47.8222 92.396 61.805 96.3564 82.6926L100.286 81.9474C96.3107 60.979 94.3694 47.3778 94.3694 40.944H90.3694ZM96.4644 83.0628L101.264 95.0628L104.978 93.5772L100.178 81.5772L96.4644 83.0628ZM101.121 94.32C101.121 94.1822 101.178 94.2184 100.997 94.467C100.817 94.7167 100.476 95.0691 99.8933 95.5131L102.317 98.6949C103.079 98.1149 103.746 97.4913 104.237 96.813C104.729 96.1336 105.121 95.2898 105.121 94.32H101.121ZM101.105 95.104H99.2814V99.104H101.105V95.104ZM99.8561 95.1883C100.198 95.2909 100.168 95.4452 99.8085 94.9595C99.5124 94.5598 99.1342 93.9204 98.6789 92.9872C97.7733 91.1305 96.6847 88.3663 95.4138 84.649L91.6289 85.943C92.9181 89.7137 94.0695 92.6615 95.0838 94.7408C95.5886 95.7756 96.0904 96.6602 96.5943 97.3405C97.0345 97.9348 97.7247 98.7251 98.7067 99.0197L99.8561 95.1883ZM95.449 84.7628C93.8234 78.8857 92.1735 69.7184 90.512 57.193L86.5467 57.719C88.2132 70.2816 89.8914 79.6743 91.5938 85.8292L95.449 84.7628ZM88.5294 55.456H87.9534V59.456H88.5294V55.456ZM86.0582 56.8169C84.2093 62.3 82.652 66.3965 81.3849 69.1472C80.7481 70.5294 80.2145 71.5055 79.7868 72.1306C79.5726 72.4436 79.4199 72.6167 79.3332 72.6988C79.2273 72.799 79.316 72.6738 79.5963 72.6037L80.5664 76.4843C81.2308 76.3182 81.7374 75.931 82.0835 75.6032C82.4488 75.2573 82.7821 74.8364 83.088 74.3894C83.7002 73.4945 84.3426 72.2866 85.0179 70.8208C86.3747 67.8755 87.9855 63.62 89.8485 58.0951L86.0582 56.8169ZM79.5963 72.6037L78.0603 72.9877L79.0304 76.8683L80.5664 76.4843L79.5963 72.6037ZM78.5454 72.928C78.8803 72.928 78.9757 73.089 78.7921 72.9289C78.6184 72.7773 78.3418 72.462 77.9784 71.8889C77.2553 70.7486 76.3999 68.9297 75.4242 66.3488L71.6826 67.7632C72.6909 70.4303 73.6595 72.5474 74.6004 74.0311C75.0689 74.77 75.5844 75.4387 76.1626 75.9431C76.7311 76.439 77.5384 76.928 78.5454 76.928V72.928ZM73.5534 65.056H72.8814V69.056H73.5534V65.056ZM70.8837 66.9589C70.5008 74.8407 69.9377 80.6556 69.2126 84.4661C68.8466 86.3899 68.4622 87.6735 68.1039 88.4298C68.0188 88.6095 67.9443 88.7394 67.8845 88.8297C67.8551 88.874 67.8314 88.9056 67.8142 88.9267C67.797 88.9479 67.7882 88.9563 67.789 88.9555C67.7984 88.9465 68.0021 88.768 68.3694 88.768V92.768C69.2966 92.768 70.0374 92.3425 70.5608 91.8395C71.0602 91.3595 71.4305 90.7509 71.7189 90.1422C72.2966 88.9225 72.7562 87.2421 73.1421 85.2139C73.921 81.1204 74.4939 75.0793 74.879 67.1531L70.8837 66.9589ZM68.3694 88.768H68.0814V92.768H68.3694V88.768ZM68.0814 88.768C67.6724 88.768 67.5085 88.6564 67.3438 88.4211C67.0913 88.0604 66.8044 87.2917 66.7178 85.8482L62.725 86.0878C62.8304 87.8443 63.1994 89.4756 64.0669 90.7149C65.0222 92.0796 66.4423 92.768 68.0814 92.768V88.768ZM66.6568 86.472C68.3017 80.1557 69.1214 73.5858 69.1214 66.768H65.1214C65.1214 73.2622 64.341 79.4923 62.7859 85.464L66.6568 86.472ZM69.1111 66.5653L66.5191 41.1253L62.5397 41.5307L65.1317 66.9707L69.1111 66.5653ZM66.5294 41.328V39.504H62.5294V41.328H66.5294ZM66.5294 39.504C66.5294 38.4642 66.725 38.0428 66.8077 37.9264C66.8161 37.9147 66.8223 37.9073 66.8261 37.9032C66.8298 37.8991 66.8319 37.8974 66.8322 37.8971C66.8325 37.8969 66.8325 37.8968 66.8324 37.8969C66.8323 37.897 66.8323 37.897 66.8323 37.897C66.8323 37.897 66.8326 37.8968 66.8332 37.8965C66.8339 37.8961 66.835 37.8955 66.8368 37.8946C66.8457 37.8905 66.9232 37.856 67.1214 37.856V33.856C65.7275 33.856 64.4175 34.3844 63.547 35.6096C62.7657 36.7092 62.5294 38.1118 62.5294 39.504H66.5294ZM67.1214 37.856C67.0274 37.856 67.1461 37.7943 67.4972 38.1597C67.8623 38.5397 68.32 39.2277 68.8262 40.3502C69.8346 42.5862 70.8317 46.0785 71.7827 50.9288L75.708 50.1592C74.739 45.2175 73.6722 41.3658 72.4725 38.7058C71.8748 37.3803 71.1925 36.2323 70.3816 35.3883C69.5566 34.5297 68.4633 33.856 67.1214 33.856V37.856ZM71.8386 51.1476C73.2492 55.6037 74.3944 59.0567 75.2716 61.4934C75.7093 62.7091 76.0889 63.6964 76.4082 64.4384C76.5674 64.8084 76.7216 65.1411 76.8696 65.4215C76.9979 65.6646 77.1909 66.0048 77.4495 66.2893L80.4093 63.5987C80.5079 63.7072 80.5068 63.7434 80.4071 63.5545C80.3271 63.4029 80.2194 63.1756 80.0826 62.8576C79.8098 62.2236 79.4615 61.3229 79.0352 60.1386C78.1844 57.7753 77.0576 54.3803 75.6521 49.9404L71.8386 51.1476ZM80.6148 66.0208C82.2759 63.4207 83.8093 59.0464 85.2857 53.1411L81.4051 52.1709C79.9374 58.0416 78.5268 61.8593 77.244 63.8672L80.6148 66.0208ZM85.2131 53.3713C86.4387 50.171 87.5845 45.3062 88.6771 38.8792L84.7337 38.2088C83.6503 44.5818 82.556 49.125 81.4777 51.9407L85.2131 53.3713ZM87.9054 36.944L87.5214 36.656L85.1214 39.856L85.5054 40.144L87.9054 36.944ZM88.2617 38.7411L88.6457 37.2051L84.7651 36.2349L84.3811 37.7709L88.2617 38.7411ZM88.7054 36.72V36.144H84.7054V36.72H88.7054ZM88.7025 36.2504C88.988 30.891 89.5697 27.0502 90.3799 24.6051C90.7862 23.3788 91.2032 22.6514 91.5492 22.2616C91.8532 21.9191 92.0161 21.92 92.0814 21.92V17.92C90.6427 17.92 89.4535 18.5969 88.5576 19.6064C87.7035 20.5686 87.0726 21.8692 86.5829 23.3469C85.6011 26.3098 84.9988 30.581 84.7082 36.0376L88.7025 36.2504Z" fill="black" mask="url(#path-2-outside-1_0_1)"/>
</svg>
